G04 EAGLE Gerber RS-274X export*
G75*
%MOMM*%
%FSLAX34Y34*%
%LPD*%
%INTop Copper*%
%IPPOS*%
%AMOC8*
5,1,8,0,0,1.08239X$1,22.5*%
G01*
%ADD10C,0.000000*%
%ADD11C,2.095500*%
%ADD12C,2.184400*%
%ADD13C,1.509600*%
%ADD14P,1.633976X8X112.500000*%
%ADD15R,1.600000X2.700000*%
%ADD16C,1.016000*%


D10*
X10160Y0D02*
X931420Y0D01*
X931420Y792380D01*
X10160Y792380D01*
X10160Y0D01*
D11*
X599123Y762000D02*
X620078Y762000D01*
X442278Y762000D02*
X421323Y762000D01*
X713423Y327660D02*
X734378Y327660D01*
X556578Y327660D02*
X535623Y327660D01*
X599123Y279400D02*
X620078Y279400D01*
X442278Y279400D02*
X421323Y279400D01*
X710883Y231140D02*
X731838Y231140D01*
X554038Y231140D02*
X533083Y231140D01*
X599123Y182880D02*
X620078Y182880D01*
X442278Y182880D02*
X421323Y182880D01*
X710883Y134620D02*
X731838Y134620D01*
X554038Y134620D02*
X533083Y134620D01*
X599123Y86360D02*
X620078Y86360D01*
X442278Y86360D02*
X421323Y86360D01*
X708343Y38100D02*
X729298Y38100D01*
X551498Y38100D02*
X530543Y38100D01*
X713423Y713740D02*
X734378Y713740D01*
X556578Y713740D02*
X535623Y713740D01*
X599123Y665480D02*
X620078Y665480D01*
X442278Y665480D02*
X421323Y665480D01*
X713423Y617220D02*
X734378Y617220D01*
X556578Y617220D02*
X535623Y617220D01*
X599123Y568960D02*
X620078Y568960D01*
X442278Y568960D02*
X421323Y568960D01*
X713423Y520700D02*
X734378Y520700D01*
X556578Y520700D02*
X535623Y520700D01*
X599123Y472440D02*
X620078Y472440D01*
X442278Y472440D02*
X421323Y472440D01*
X713423Y424180D02*
X734378Y424180D01*
X556578Y424180D02*
X535623Y424180D01*
X599123Y375920D02*
X620078Y375920D01*
X442278Y375920D02*
X421323Y375920D01*
D12*
X298900Y749300D03*
X342900Y749300D03*
X386900Y749300D03*
X298900Y647700D03*
X342900Y647700D03*
X386900Y647700D03*
X298900Y546100D03*
X342900Y546100D03*
X386900Y546100D03*
X298900Y444500D03*
X342900Y444500D03*
X386900Y444500D03*
X386900Y342900D03*
X342900Y342900D03*
X298900Y342900D03*
X386900Y241300D03*
X342900Y241300D03*
X298900Y241300D03*
X386900Y139700D03*
X342900Y139700D03*
X298900Y139700D03*
X386900Y38100D03*
X342900Y38100D03*
X298900Y38100D03*
D13*
X114300Y572800D03*
X139700Y469930D03*
X139700Y492790D03*
X139700Y515650D03*
X139700Y538510D03*
X139700Y561370D03*
X88900Y561370D03*
X139700Y447070D03*
X139700Y424210D03*
X139700Y401350D03*
X139700Y378490D03*
X139700Y355630D03*
X139700Y332770D03*
X139700Y309910D03*
X139700Y287050D03*
X139700Y264190D03*
X139700Y241330D03*
X114300Y549940D03*
X114300Y527080D03*
X114300Y504220D03*
X114300Y481360D03*
X114300Y458500D03*
X114300Y435640D03*
X114300Y412780D03*
X114300Y389920D03*
X114300Y367060D03*
X114300Y344200D03*
X114300Y321340D03*
X114300Y298480D03*
X114300Y275620D03*
X114300Y252760D03*
X88900Y538510D03*
X88900Y515650D03*
X88900Y492790D03*
X88900Y469930D03*
X88900Y447070D03*
X88900Y424210D03*
X88900Y401350D03*
X88900Y378490D03*
X88900Y355630D03*
X88900Y332770D03*
X88900Y309910D03*
X88900Y287050D03*
X88900Y264190D03*
D10*
X99300Y641600D02*
X99305Y641968D01*
X99318Y642336D01*
X99341Y642703D01*
X99372Y643070D01*
X99413Y643436D01*
X99462Y643801D01*
X99521Y644164D01*
X99588Y644526D01*
X99664Y644887D01*
X99750Y645245D01*
X99843Y645601D01*
X99946Y645954D01*
X100057Y646305D01*
X100177Y646653D01*
X100305Y646998D01*
X100442Y647340D01*
X100587Y647679D01*
X100740Y648013D01*
X100902Y648344D01*
X101071Y648671D01*
X101249Y648993D01*
X101434Y649312D01*
X101627Y649625D01*
X101828Y649934D01*
X102036Y650237D01*
X102252Y650535D01*
X102475Y650828D01*
X102705Y651116D01*
X102942Y651398D01*
X103186Y651673D01*
X103436Y651943D01*
X103693Y652207D01*
X103957Y652464D01*
X104227Y652714D01*
X104502Y652958D01*
X104784Y653195D01*
X105072Y653425D01*
X105365Y653648D01*
X105663Y653864D01*
X105966Y654072D01*
X106275Y654273D01*
X106588Y654466D01*
X106907Y654651D01*
X107229Y654829D01*
X107556Y654998D01*
X107887Y655160D01*
X108221Y655313D01*
X108560Y655458D01*
X108902Y655595D01*
X109247Y655723D01*
X109595Y655843D01*
X109946Y655954D01*
X110299Y656057D01*
X110655Y656150D01*
X111013Y656236D01*
X111374Y656312D01*
X111736Y656379D01*
X112099Y656438D01*
X112464Y656487D01*
X112830Y656528D01*
X113197Y656559D01*
X113564Y656582D01*
X113932Y656595D01*
X114300Y656600D01*
X114668Y656595D01*
X115036Y656582D01*
X115403Y656559D01*
X115770Y656528D01*
X116136Y656487D01*
X116501Y656438D01*
X116864Y656379D01*
X117226Y656312D01*
X117587Y656236D01*
X117945Y656150D01*
X118301Y656057D01*
X118654Y655954D01*
X119005Y655843D01*
X119353Y655723D01*
X119698Y655595D01*
X120040Y655458D01*
X120379Y655313D01*
X120713Y655160D01*
X121044Y654998D01*
X121371Y654829D01*
X121693Y654651D01*
X122012Y654466D01*
X122325Y654273D01*
X122634Y654072D01*
X122937Y653864D01*
X123235Y653648D01*
X123528Y653425D01*
X123816Y653195D01*
X124098Y652958D01*
X124373Y652714D01*
X124643Y652464D01*
X124907Y652207D01*
X125164Y651943D01*
X125414Y651673D01*
X125658Y651398D01*
X125895Y651116D01*
X126125Y650828D01*
X126348Y650535D01*
X126564Y650237D01*
X126772Y649934D01*
X126973Y649625D01*
X127166Y649312D01*
X127351Y648993D01*
X127529Y648671D01*
X127698Y648344D01*
X127860Y648013D01*
X128013Y647679D01*
X128158Y647340D01*
X128295Y646998D01*
X128423Y646653D01*
X128543Y646305D01*
X128654Y645954D01*
X128757Y645601D01*
X128850Y645245D01*
X128936Y644887D01*
X129012Y644526D01*
X129079Y644164D01*
X129138Y643801D01*
X129187Y643436D01*
X129228Y643070D01*
X129259Y642703D01*
X129282Y642336D01*
X129295Y641968D01*
X129300Y641600D01*
X129295Y641232D01*
X129282Y640864D01*
X129259Y640497D01*
X129228Y640130D01*
X129187Y639764D01*
X129138Y639399D01*
X129079Y639036D01*
X129012Y638674D01*
X128936Y638313D01*
X128850Y637955D01*
X128757Y637599D01*
X128654Y637246D01*
X128543Y636895D01*
X128423Y636547D01*
X128295Y636202D01*
X128158Y635860D01*
X128013Y635521D01*
X127860Y635187D01*
X127698Y634856D01*
X127529Y634529D01*
X127351Y634207D01*
X127166Y633888D01*
X126973Y633575D01*
X126772Y633266D01*
X126564Y632963D01*
X126348Y632665D01*
X126125Y632372D01*
X125895Y632084D01*
X125658Y631802D01*
X125414Y631527D01*
X125164Y631257D01*
X124907Y630993D01*
X124643Y630736D01*
X124373Y630486D01*
X124098Y630242D01*
X123816Y630005D01*
X123528Y629775D01*
X123235Y629552D01*
X122937Y629336D01*
X122634Y629128D01*
X122325Y628927D01*
X122012Y628734D01*
X121693Y628549D01*
X121371Y628371D01*
X121044Y628202D01*
X120713Y628040D01*
X120379Y627887D01*
X120040Y627742D01*
X119698Y627605D01*
X119353Y627477D01*
X119005Y627357D01*
X118654Y627246D01*
X118301Y627143D01*
X117945Y627050D01*
X117587Y626964D01*
X117226Y626888D01*
X116864Y626821D01*
X116501Y626762D01*
X116136Y626713D01*
X115770Y626672D01*
X115403Y626641D01*
X115036Y626618D01*
X114668Y626605D01*
X114300Y626600D01*
X113932Y626605D01*
X113564Y626618D01*
X113197Y626641D01*
X112830Y626672D01*
X112464Y626713D01*
X112099Y626762D01*
X111736Y626821D01*
X111374Y626888D01*
X111013Y626964D01*
X110655Y627050D01*
X110299Y627143D01*
X109946Y627246D01*
X109595Y627357D01*
X109247Y627477D01*
X108902Y627605D01*
X108560Y627742D01*
X108221Y627887D01*
X107887Y628040D01*
X107556Y628202D01*
X107229Y628371D01*
X106907Y628549D01*
X106588Y628734D01*
X106275Y628927D01*
X105966Y629128D01*
X105663Y629336D01*
X105365Y629552D01*
X105072Y629775D01*
X104784Y630005D01*
X104502Y630242D01*
X104227Y630486D01*
X103957Y630736D01*
X103693Y630993D01*
X103436Y631257D01*
X103186Y631527D01*
X102942Y631802D01*
X102705Y632084D01*
X102475Y632372D01*
X102252Y632665D01*
X102036Y632963D01*
X101828Y633266D01*
X101627Y633575D01*
X101434Y633888D01*
X101249Y634207D01*
X101071Y634529D01*
X100902Y634856D01*
X100740Y635187D01*
X100587Y635521D01*
X100442Y635860D01*
X100305Y636202D01*
X100177Y636547D01*
X100057Y636895D01*
X99946Y637246D01*
X99843Y637599D01*
X99750Y637955D01*
X99664Y638313D01*
X99588Y638674D01*
X99521Y639036D01*
X99462Y639399D01*
X99413Y639764D01*
X99372Y640130D01*
X99341Y640497D01*
X99318Y640864D01*
X99305Y641232D01*
X99300Y641600D01*
X99300Y171200D02*
X99305Y171568D01*
X99318Y171936D01*
X99341Y172303D01*
X99372Y172670D01*
X99413Y173036D01*
X99462Y173401D01*
X99521Y173764D01*
X99588Y174126D01*
X99664Y174487D01*
X99750Y174845D01*
X99843Y175201D01*
X99946Y175554D01*
X100057Y175905D01*
X100177Y176253D01*
X100305Y176598D01*
X100442Y176940D01*
X100587Y177279D01*
X100740Y177613D01*
X100902Y177944D01*
X101071Y178271D01*
X101249Y178593D01*
X101434Y178912D01*
X101627Y179225D01*
X101828Y179534D01*
X102036Y179837D01*
X102252Y180135D01*
X102475Y180428D01*
X102705Y180716D01*
X102942Y180998D01*
X103186Y181273D01*
X103436Y181543D01*
X103693Y181807D01*
X103957Y182064D01*
X104227Y182314D01*
X104502Y182558D01*
X104784Y182795D01*
X105072Y183025D01*
X105365Y183248D01*
X105663Y183464D01*
X105966Y183672D01*
X106275Y183873D01*
X106588Y184066D01*
X106907Y184251D01*
X107229Y184429D01*
X107556Y184598D01*
X107887Y184760D01*
X108221Y184913D01*
X108560Y185058D01*
X108902Y185195D01*
X109247Y185323D01*
X109595Y185443D01*
X109946Y185554D01*
X110299Y185657D01*
X110655Y185750D01*
X111013Y185836D01*
X111374Y185912D01*
X111736Y185979D01*
X112099Y186038D01*
X112464Y186087D01*
X112830Y186128D01*
X113197Y186159D01*
X113564Y186182D01*
X113932Y186195D01*
X114300Y186200D01*
X114668Y186195D01*
X115036Y186182D01*
X115403Y186159D01*
X115770Y186128D01*
X116136Y186087D01*
X116501Y186038D01*
X116864Y185979D01*
X117226Y185912D01*
X117587Y185836D01*
X117945Y185750D01*
X118301Y185657D01*
X118654Y185554D01*
X119005Y185443D01*
X119353Y185323D01*
X119698Y185195D01*
X120040Y185058D01*
X120379Y184913D01*
X120713Y184760D01*
X121044Y184598D01*
X121371Y184429D01*
X121693Y184251D01*
X122012Y184066D01*
X122325Y183873D01*
X122634Y183672D01*
X122937Y183464D01*
X123235Y183248D01*
X123528Y183025D01*
X123816Y182795D01*
X124098Y182558D01*
X124373Y182314D01*
X124643Y182064D01*
X124907Y181807D01*
X125164Y181543D01*
X125414Y181273D01*
X125658Y180998D01*
X125895Y180716D01*
X126125Y180428D01*
X126348Y180135D01*
X126564Y179837D01*
X126772Y179534D01*
X126973Y179225D01*
X127166Y178912D01*
X127351Y178593D01*
X127529Y178271D01*
X127698Y177944D01*
X127860Y177613D01*
X128013Y177279D01*
X128158Y176940D01*
X128295Y176598D01*
X128423Y176253D01*
X128543Y175905D01*
X128654Y175554D01*
X128757Y175201D01*
X128850Y174845D01*
X128936Y174487D01*
X129012Y174126D01*
X129079Y173764D01*
X129138Y173401D01*
X129187Y173036D01*
X129228Y172670D01*
X129259Y172303D01*
X129282Y171936D01*
X129295Y171568D01*
X129300Y171200D01*
X129295Y170832D01*
X129282Y170464D01*
X129259Y170097D01*
X129228Y169730D01*
X129187Y169364D01*
X129138Y168999D01*
X129079Y168636D01*
X129012Y168274D01*
X128936Y167913D01*
X128850Y167555D01*
X128757Y167199D01*
X128654Y166846D01*
X128543Y166495D01*
X128423Y166147D01*
X128295Y165802D01*
X128158Y165460D01*
X128013Y165121D01*
X127860Y164787D01*
X127698Y164456D01*
X127529Y164129D01*
X127351Y163807D01*
X127166Y163488D01*
X126973Y163175D01*
X126772Y162866D01*
X126564Y162563D01*
X126348Y162265D01*
X126125Y161972D01*
X125895Y161684D01*
X125658Y161402D01*
X125414Y161127D01*
X125164Y160857D01*
X124907Y160593D01*
X124643Y160336D01*
X124373Y160086D01*
X124098Y159842D01*
X123816Y159605D01*
X123528Y159375D01*
X123235Y159152D01*
X122937Y158936D01*
X122634Y158728D01*
X122325Y158527D01*
X122012Y158334D01*
X121693Y158149D01*
X121371Y157971D01*
X121044Y157802D01*
X120713Y157640D01*
X120379Y157487D01*
X120040Y157342D01*
X119698Y157205D01*
X119353Y157077D01*
X119005Y156957D01*
X118654Y156846D01*
X118301Y156743D01*
X117945Y156650D01*
X117587Y156564D01*
X117226Y156488D01*
X116864Y156421D01*
X116501Y156362D01*
X116136Y156313D01*
X115770Y156272D01*
X115403Y156241D01*
X115036Y156218D01*
X114668Y156205D01*
X114300Y156200D01*
X113932Y156205D01*
X113564Y156218D01*
X113197Y156241D01*
X112830Y156272D01*
X112464Y156313D01*
X112099Y156362D01*
X111736Y156421D01*
X111374Y156488D01*
X111013Y156564D01*
X110655Y156650D01*
X110299Y156743D01*
X109946Y156846D01*
X109595Y156957D01*
X109247Y157077D01*
X108902Y157205D01*
X108560Y157342D01*
X108221Y157487D01*
X107887Y157640D01*
X107556Y157802D01*
X107229Y157971D01*
X106907Y158149D01*
X106588Y158334D01*
X106275Y158527D01*
X105966Y158728D01*
X105663Y158936D01*
X105365Y159152D01*
X105072Y159375D01*
X104784Y159605D01*
X104502Y159842D01*
X104227Y160086D01*
X103957Y160336D01*
X103693Y160593D01*
X103436Y160857D01*
X103186Y161127D01*
X102942Y161402D01*
X102705Y161684D01*
X102475Y161972D01*
X102252Y162265D01*
X102036Y162563D01*
X101828Y162866D01*
X101627Y163175D01*
X101434Y163488D01*
X101249Y163807D01*
X101071Y164129D01*
X100902Y164456D01*
X100740Y164787D01*
X100587Y165121D01*
X100442Y165460D01*
X100305Y165802D01*
X100177Y166147D01*
X100057Y166495D01*
X99946Y166846D01*
X99843Y167199D01*
X99750Y167555D01*
X99664Y167913D01*
X99588Y168274D01*
X99521Y168636D01*
X99462Y168999D01*
X99413Y169364D01*
X99372Y169730D01*
X99341Y170097D01*
X99318Y170464D01*
X99305Y170832D01*
X99300Y171200D01*
D13*
X828040Y572800D03*
X802640Y469930D03*
X802640Y492790D03*
X802640Y515650D03*
X802640Y538510D03*
D14*
X802640Y561370D03*
D13*
X853440Y561370D03*
X802640Y447070D03*
X802640Y424210D03*
X802640Y401350D03*
X802640Y378490D03*
X802640Y355630D03*
X802640Y332770D03*
X802640Y309910D03*
X802640Y287050D03*
X802640Y264190D03*
X802640Y241330D03*
X828040Y549940D03*
X828040Y527080D03*
X828040Y504220D03*
X828040Y481360D03*
X828040Y458500D03*
X828040Y435640D03*
X828040Y412780D03*
X828040Y389920D03*
X828040Y367060D03*
X828040Y344200D03*
X828040Y321340D03*
X828040Y298480D03*
X828040Y275620D03*
X828040Y252760D03*
X853440Y538510D03*
X853440Y515650D03*
X853440Y492790D03*
X853440Y469930D03*
X853440Y447070D03*
X853440Y424210D03*
X853440Y401350D03*
X853440Y378490D03*
X853440Y355630D03*
X853440Y332770D03*
X853440Y309910D03*
X853440Y287050D03*
X853440Y264190D03*
D10*
X813040Y171200D02*
X813045Y171568D01*
X813058Y171936D01*
X813081Y172303D01*
X813112Y172670D01*
X813153Y173036D01*
X813202Y173401D01*
X813261Y173764D01*
X813328Y174126D01*
X813404Y174487D01*
X813490Y174845D01*
X813583Y175201D01*
X813686Y175554D01*
X813797Y175905D01*
X813917Y176253D01*
X814045Y176598D01*
X814182Y176940D01*
X814327Y177279D01*
X814480Y177613D01*
X814642Y177944D01*
X814811Y178271D01*
X814989Y178593D01*
X815174Y178912D01*
X815367Y179225D01*
X815568Y179534D01*
X815776Y179837D01*
X815992Y180135D01*
X816215Y180428D01*
X816445Y180716D01*
X816682Y180998D01*
X816926Y181273D01*
X817176Y181543D01*
X817433Y181807D01*
X817697Y182064D01*
X817967Y182314D01*
X818242Y182558D01*
X818524Y182795D01*
X818812Y183025D01*
X819105Y183248D01*
X819403Y183464D01*
X819706Y183672D01*
X820015Y183873D01*
X820328Y184066D01*
X820647Y184251D01*
X820969Y184429D01*
X821296Y184598D01*
X821627Y184760D01*
X821961Y184913D01*
X822300Y185058D01*
X822642Y185195D01*
X822987Y185323D01*
X823335Y185443D01*
X823686Y185554D01*
X824039Y185657D01*
X824395Y185750D01*
X824753Y185836D01*
X825114Y185912D01*
X825476Y185979D01*
X825839Y186038D01*
X826204Y186087D01*
X826570Y186128D01*
X826937Y186159D01*
X827304Y186182D01*
X827672Y186195D01*
X828040Y186200D01*
X828408Y186195D01*
X828776Y186182D01*
X829143Y186159D01*
X829510Y186128D01*
X829876Y186087D01*
X830241Y186038D01*
X830604Y185979D01*
X830966Y185912D01*
X831327Y185836D01*
X831685Y185750D01*
X832041Y185657D01*
X832394Y185554D01*
X832745Y185443D01*
X833093Y185323D01*
X833438Y185195D01*
X833780Y185058D01*
X834119Y184913D01*
X834453Y184760D01*
X834784Y184598D01*
X835111Y184429D01*
X835433Y184251D01*
X835752Y184066D01*
X836065Y183873D01*
X836374Y183672D01*
X836677Y183464D01*
X836975Y183248D01*
X837268Y183025D01*
X837556Y182795D01*
X837838Y182558D01*
X838113Y182314D01*
X838383Y182064D01*
X838647Y181807D01*
X838904Y181543D01*
X839154Y181273D01*
X839398Y180998D01*
X839635Y180716D01*
X839865Y180428D01*
X840088Y180135D01*
X840304Y179837D01*
X840512Y179534D01*
X840713Y179225D01*
X840906Y178912D01*
X841091Y178593D01*
X841269Y178271D01*
X841438Y177944D01*
X841600Y177613D01*
X841753Y177279D01*
X841898Y176940D01*
X842035Y176598D01*
X842163Y176253D01*
X842283Y175905D01*
X842394Y175554D01*
X842497Y175201D01*
X842590Y174845D01*
X842676Y174487D01*
X842752Y174126D01*
X842819Y173764D01*
X842878Y173401D01*
X842927Y173036D01*
X842968Y172670D01*
X842999Y172303D01*
X843022Y171936D01*
X843035Y171568D01*
X843040Y171200D01*
X843035Y170832D01*
X843022Y170464D01*
X842999Y170097D01*
X842968Y169730D01*
X842927Y169364D01*
X842878Y168999D01*
X842819Y168636D01*
X842752Y168274D01*
X842676Y167913D01*
X842590Y167555D01*
X842497Y167199D01*
X842394Y166846D01*
X842283Y166495D01*
X842163Y166147D01*
X842035Y165802D01*
X841898Y165460D01*
X841753Y165121D01*
X841600Y164787D01*
X841438Y164456D01*
X841269Y164129D01*
X841091Y163807D01*
X840906Y163488D01*
X840713Y163175D01*
X840512Y162866D01*
X840304Y162563D01*
X840088Y162265D01*
X839865Y161972D01*
X839635Y161684D01*
X839398Y161402D01*
X839154Y161127D01*
X838904Y160857D01*
X838647Y160593D01*
X838383Y160336D01*
X838113Y160086D01*
X837838Y159842D01*
X837556Y159605D01*
X837268Y159375D01*
X836975Y159152D01*
X836677Y158936D01*
X836374Y158728D01*
X836065Y158527D01*
X835752Y158334D01*
X835433Y158149D01*
X835111Y157971D01*
X834784Y157802D01*
X834453Y157640D01*
X834119Y157487D01*
X833780Y157342D01*
X833438Y157205D01*
X833093Y157077D01*
X832745Y156957D01*
X832394Y156846D01*
X832041Y156743D01*
X831685Y156650D01*
X831327Y156564D01*
X830966Y156488D01*
X830604Y156421D01*
X830241Y156362D01*
X829876Y156313D01*
X829510Y156272D01*
X829143Y156241D01*
X828776Y156218D01*
X828408Y156205D01*
X828040Y156200D01*
X827672Y156205D01*
X827304Y156218D01*
X826937Y156241D01*
X826570Y156272D01*
X826204Y156313D01*
X825839Y156362D01*
X825476Y156421D01*
X825114Y156488D01*
X824753Y156564D01*
X824395Y156650D01*
X824039Y156743D01*
X823686Y156846D01*
X823335Y156957D01*
X822987Y157077D01*
X822642Y157205D01*
X822300Y157342D01*
X821961Y157487D01*
X821627Y157640D01*
X821296Y157802D01*
X820969Y157971D01*
X820647Y158149D01*
X820328Y158334D01*
X820015Y158527D01*
X819706Y158728D01*
X819403Y158936D01*
X819105Y159152D01*
X818812Y159375D01*
X818524Y159605D01*
X818242Y159842D01*
X817967Y160086D01*
X817697Y160336D01*
X817433Y160593D01*
X817176Y160857D01*
X816926Y161127D01*
X816682Y161402D01*
X816445Y161684D01*
X816215Y161972D01*
X815992Y162265D01*
X815776Y162563D01*
X815568Y162866D01*
X815367Y163175D01*
X815174Y163488D01*
X814989Y163807D01*
X814811Y164129D01*
X814642Y164456D01*
X814480Y164787D01*
X814327Y165121D01*
X814182Y165460D01*
X814045Y165802D01*
X813917Y166147D01*
X813797Y166495D01*
X813686Y166846D01*
X813583Y167199D01*
X813490Y167555D01*
X813404Y167913D01*
X813328Y168274D01*
X813261Y168636D01*
X813202Y168999D01*
X813153Y169364D01*
X813112Y169730D01*
X813081Y170097D01*
X813058Y170464D01*
X813045Y170832D01*
X813040Y171200D01*
X813040Y641600D02*
X813045Y641968D01*
X813058Y642336D01*
X813081Y642703D01*
X813112Y643070D01*
X813153Y643436D01*
X813202Y643801D01*
X813261Y644164D01*
X813328Y644526D01*
X813404Y644887D01*
X813490Y645245D01*
X813583Y645601D01*
X813686Y645954D01*
X813797Y646305D01*
X813917Y646653D01*
X814045Y646998D01*
X814182Y647340D01*
X814327Y647679D01*
X814480Y648013D01*
X814642Y648344D01*
X814811Y648671D01*
X814989Y648993D01*
X815174Y649312D01*
X815367Y649625D01*
X815568Y649934D01*
X815776Y650237D01*
X815992Y650535D01*
X816215Y650828D01*
X816445Y651116D01*
X816682Y651398D01*
X816926Y651673D01*
X817176Y651943D01*
X817433Y652207D01*
X817697Y652464D01*
X817967Y652714D01*
X818242Y652958D01*
X818524Y653195D01*
X818812Y653425D01*
X819105Y653648D01*
X819403Y653864D01*
X819706Y654072D01*
X820015Y654273D01*
X820328Y654466D01*
X820647Y654651D01*
X820969Y654829D01*
X821296Y654998D01*
X821627Y655160D01*
X821961Y655313D01*
X822300Y655458D01*
X822642Y655595D01*
X822987Y655723D01*
X823335Y655843D01*
X823686Y655954D01*
X824039Y656057D01*
X824395Y656150D01*
X824753Y656236D01*
X825114Y656312D01*
X825476Y656379D01*
X825839Y656438D01*
X826204Y656487D01*
X826570Y656528D01*
X826937Y656559D01*
X827304Y656582D01*
X827672Y656595D01*
X828040Y656600D01*
X828408Y656595D01*
X828776Y656582D01*
X829143Y656559D01*
X829510Y656528D01*
X829876Y656487D01*
X830241Y656438D01*
X830604Y656379D01*
X830966Y656312D01*
X831327Y656236D01*
X831685Y656150D01*
X832041Y656057D01*
X832394Y655954D01*
X832745Y655843D01*
X833093Y655723D01*
X833438Y655595D01*
X833780Y655458D01*
X834119Y655313D01*
X834453Y655160D01*
X834784Y654998D01*
X835111Y654829D01*
X835433Y654651D01*
X835752Y654466D01*
X836065Y654273D01*
X836374Y654072D01*
X836677Y653864D01*
X836975Y653648D01*
X837268Y653425D01*
X837556Y653195D01*
X837838Y652958D01*
X838113Y652714D01*
X838383Y652464D01*
X838647Y652207D01*
X838904Y651943D01*
X839154Y651673D01*
X839398Y651398D01*
X839635Y651116D01*
X839865Y650828D01*
X840088Y650535D01*
X840304Y650237D01*
X840512Y649934D01*
X840713Y649625D01*
X840906Y649312D01*
X841091Y648993D01*
X841269Y648671D01*
X841438Y648344D01*
X841600Y648013D01*
X841753Y647679D01*
X841898Y647340D01*
X842035Y646998D01*
X842163Y646653D01*
X842283Y646305D01*
X842394Y645954D01*
X842497Y645601D01*
X842590Y645245D01*
X842676Y644887D01*
X842752Y644526D01*
X842819Y644164D01*
X842878Y643801D01*
X842927Y643436D01*
X842968Y643070D01*
X842999Y642703D01*
X843022Y642336D01*
X843035Y641968D01*
X843040Y641600D01*
X843035Y641232D01*
X843022Y640864D01*
X842999Y640497D01*
X842968Y640130D01*
X842927Y639764D01*
X842878Y639399D01*
X842819Y639036D01*
X842752Y638674D01*
X842676Y638313D01*
X842590Y637955D01*
X842497Y637599D01*
X842394Y637246D01*
X842283Y636895D01*
X842163Y636547D01*
X842035Y636202D01*
X841898Y635860D01*
X841753Y635521D01*
X841600Y635187D01*
X841438Y634856D01*
X841269Y634529D01*
X841091Y634207D01*
X840906Y633888D01*
X840713Y633575D01*
X840512Y633266D01*
X840304Y632963D01*
X840088Y632665D01*
X839865Y632372D01*
X839635Y632084D01*
X839398Y631802D01*
X839154Y631527D01*
X838904Y631257D01*
X838647Y630993D01*
X838383Y630736D01*
X838113Y630486D01*
X837838Y630242D01*
X837556Y630005D01*
X837268Y629775D01*
X836975Y629552D01*
X836677Y629336D01*
X836374Y629128D01*
X836065Y628927D01*
X835752Y628734D01*
X835433Y628549D01*
X835111Y628371D01*
X834784Y628202D01*
X834453Y628040D01*
X834119Y627887D01*
X833780Y627742D01*
X833438Y627605D01*
X833093Y627477D01*
X832745Y627357D01*
X832394Y627246D01*
X832041Y627143D01*
X831685Y627050D01*
X831327Y626964D01*
X830966Y626888D01*
X830604Y626821D01*
X830241Y626762D01*
X829876Y626713D01*
X829510Y626672D01*
X829143Y626641D01*
X828776Y626618D01*
X828408Y626605D01*
X828040Y626600D01*
X827672Y626605D01*
X827304Y626618D01*
X826937Y626641D01*
X826570Y626672D01*
X826204Y626713D01*
X825839Y626762D01*
X825476Y626821D01*
X825114Y626888D01*
X824753Y626964D01*
X824395Y627050D01*
X824039Y627143D01*
X823686Y627246D01*
X823335Y627357D01*
X822987Y627477D01*
X822642Y627605D01*
X822300Y627742D01*
X821961Y627887D01*
X821627Y628040D01*
X821296Y628202D01*
X820969Y628371D01*
X820647Y628549D01*
X820328Y628734D01*
X820015Y628927D01*
X819706Y629128D01*
X819403Y629336D01*
X819105Y629552D01*
X818812Y629775D01*
X818524Y630005D01*
X818242Y630242D01*
X817967Y630486D01*
X817697Y630736D01*
X817433Y630993D01*
X817176Y631257D01*
X816926Y631527D01*
X816682Y631802D01*
X816445Y632084D01*
X816215Y632372D01*
X815992Y632665D01*
X815776Y632963D01*
X815568Y633266D01*
X815367Y633575D01*
X815174Y633888D01*
X814989Y634207D01*
X814811Y634529D01*
X814642Y634856D01*
X814480Y635187D01*
X814327Y635521D01*
X814182Y635860D01*
X814045Y636202D01*
X813917Y636547D01*
X813797Y636895D01*
X813686Y637246D01*
X813583Y637599D01*
X813490Y637955D01*
X813404Y638313D01*
X813328Y638674D01*
X813261Y639036D01*
X813202Y639399D01*
X813153Y639764D01*
X813112Y640130D01*
X813081Y640497D01*
X813058Y640864D01*
X813045Y641232D01*
X813040Y641600D01*
D15*
X224760Y759460D03*
X252760Y759460D03*
X224760Y711200D03*
X252760Y711200D03*
X224760Y662940D03*
X252760Y662940D03*
X224760Y614680D03*
X252760Y614680D03*
X224760Y566420D03*
X252760Y566420D03*
X224760Y518160D03*
X252760Y518160D03*
X224760Y469900D03*
X252760Y469900D03*
X224760Y421640D03*
X252760Y421640D03*
X224760Y373380D03*
X252760Y373380D03*
X224760Y325120D03*
X252760Y325120D03*
X224760Y276860D03*
X252760Y276860D03*
X224760Y228600D03*
X252760Y228600D03*
X224760Y180340D03*
X252760Y180340D03*
X224760Y132080D03*
X252760Y132080D03*
X224760Y83820D03*
X252760Y83820D03*
X224760Y35560D03*
X252760Y35560D03*
D16*
X298900Y749300D02*
X334360Y784760D01*
X409040Y784760D02*
X431800Y762000D01*
X409040Y784760D02*
X334360Y784760D01*
X431800Y762000D02*
X454560Y784760D01*
X749300Y784760D01*
X789940Y744120D01*
X789940Y568960D01*
X797530Y561370D01*
X802640Y561370D01*
X288740Y759460D02*
X252760Y759460D01*
X288740Y759460D02*
X298900Y749300D01*
X348800Y711200D02*
X386900Y749300D01*
X348800Y711200D02*
X256540Y711200D01*
X386900Y749300D02*
X422460Y713740D01*
X546100Y713740D01*
X675640Y713740D01*
X769620Y619760D02*
X769620Y563880D01*
X794990Y538510D01*
X802640Y538510D01*
X769620Y619760D02*
X675640Y713740D01*
X284450Y662150D02*
X253180Y662150D01*
X284450Y662150D02*
X298900Y647700D01*
X329380Y678180D01*
X419100Y678180D02*
X431800Y665480D01*
X419100Y678180D02*
X329380Y678180D01*
X431800Y665480D02*
X551180Y665480D01*
X576580Y640080D01*
X627380Y640080D01*
X675640Y591820D01*
X792450Y515650D02*
X802640Y515650D01*
X792450Y515650D02*
X716280Y591820D01*
X675640Y591820D01*
X283660Y662940D02*
X252760Y662940D01*
X283660Y662940D02*
X298900Y647700D01*
X386900Y647700D02*
X417380Y617220D01*
X546100Y617220D01*
X789910Y492790D02*
X802640Y492790D01*
X789910Y492790D02*
X711200Y571500D01*
X647700Y571500D02*
X601980Y617220D01*
X546100Y617220D01*
X647700Y571500D02*
X711200Y571500D01*
X353880Y614680D02*
X252760Y614680D01*
X353880Y614680D02*
X386900Y647700D01*
X278580Y566420D02*
X253970Y566420D01*
X298900Y546100D02*
X321760Y568960D01*
X431800Y568960D01*
X558800Y568960D01*
X604520Y523240D01*
X665480Y523240D01*
X802610Y469900D02*
X802640Y469930D01*
X779750Y469930D01*
X754380Y495300D01*
X690880Y495300D01*
X665480Y520700D01*
X665480Y523240D01*
X253970Y566420D02*
X252760Y566420D01*
X278580Y566420D02*
X298900Y546100D01*
X386900Y546100D02*
X412300Y520700D01*
X546100Y520700D01*
X556260Y520700D01*
X576580Y500380D02*
X650240Y500380D01*
X800130Y449580D02*
X802640Y447070D01*
X576580Y500380D02*
X556260Y520700D01*
X782350Y447070D02*
X802640Y447070D01*
X782350Y447070D02*
X782320Y447040D01*
X774700Y447040D01*
X749300Y472440D01*
X683260Y472440D01*
X680720Y469900D01*
X650240Y500380D01*
X358960Y518160D02*
X252760Y518160D01*
X358960Y518160D02*
X386900Y546100D01*
X326840Y472440D02*
X298900Y444500D01*
X326840Y472440D02*
X431800Y472440D01*
X558800Y472440D01*
X581660Y449580D01*
X746760Y449580D01*
X769620Y426720D01*
X769620Y424180D01*
X802610Y424180D01*
X802640Y424210D01*
X273500Y469900D02*
X252760Y469900D01*
X273500Y469900D02*
X298900Y444500D01*
X386900Y444500D02*
X407220Y424180D01*
X546100Y424180D01*
X637540Y424180D01*
X660430Y401350D02*
X802640Y401350D01*
X660430Y401350D02*
X660400Y401320D01*
X637540Y424180D01*
X364040Y421640D02*
X252760Y421640D01*
X364040Y421640D02*
X386900Y444500D01*
X419920Y375920D02*
X386900Y342900D01*
X654391Y378490D02*
X802640Y378490D01*
X654391Y378490D02*
X632011Y400871D01*
X456751Y400871D01*
X431800Y375920D02*
X419920Y375920D01*
X431800Y375920D02*
X456751Y400871D01*
X356420Y373380D02*
X252760Y373380D01*
X356420Y373380D02*
X386900Y342900D01*
X324300Y317500D02*
X298900Y342900D01*
X535940Y317500D02*
X546100Y327660D01*
X535940Y317500D02*
X324300Y317500D01*
X655350Y355630D02*
X802640Y355630D01*
X632460Y332740D02*
X632460Y327660D01*
X546100Y327660D01*
X632460Y332740D02*
X655350Y355630D01*
X298900Y342900D02*
X281120Y325120D01*
X252760Y325120D01*
X386900Y241300D02*
X425000Y279400D01*
X431800Y279400D01*
X546100Y279400D01*
X782350Y332770D02*
X802640Y332770D01*
X571500Y304800D02*
X546100Y279400D01*
X571500Y304800D02*
X754380Y304800D01*
X782350Y332770D01*
X386900Y241300D02*
X351340Y276860D01*
X252760Y276860D01*
X298900Y241300D02*
X326840Y213360D01*
X525780Y213360D02*
X543560Y231140D01*
X525780Y213360D02*
X326840Y213360D01*
X543560Y231140D02*
X568960Y256540D01*
X792510Y309910D02*
X802640Y309910D01*
X662940Y256540D02*
X568960Y256540D01*
X662940Y256540D02*
X665480Y254000D01*
X695960Y284480D02*
X767080Y284480D01*
X695960Y284480D02*
X665480Y254000D01*
X767080Y284480D02*
X792510Y309910D01*
X286200Y228600D02*
X252760Y228600D01*
X286200Y228600D02*
X298900Y241300D01*
X346260Y180340D02*
X386900Y139700D01*
X274320Y180340D02*
X254030Y180340D01*
X274320Y180340D02*
X346260Y180340D01*
X386900Y139700D02*
X430080Y182880D01*
X431800Y182880D01*
X558800Y182880D01*
X561340Y180340D01*
X612140Y231140D02*
X678180Y231140D01*
X612140Y231140D02*
X561340Y180340D01*
X678180Y231140D02*
X708660Y261620D01*
X708660Y264160D01*
X779780Y264160D01*
X802640Y287020D01*
X802640Y287050D01*
X254030Y180340D02*
X252760Y180340D01*
X298900Y143090D02*
X298900Y139700D01*
X326840Y111760D01*
X520700Y111760D02*
X543560Y134620D01*
X520700Y111760D02*
X326840Y111760D01*
X673070Y134620D02*
X802640Y264190D01*
X673070Y134620D02*
X543560Y134620D01*
X291280Y132080D02*
X252760Y132080D01*
X291280Y132080D02*
X298900Y139700D01*
X341180Y83820D02*
X386900Y38100D01*
X431800Y83000D01*
X431800Y86360D01*
X541020Y86360D01*
X574040Y53340D01*
X662940Y53340D01*
X701040Y91440D01*
X789940Y228630D02*
X802640Y241330D01*
X789940Y228630D02*
X789940Y119380D01*
X762000Y91440D01*
X701040Y91440D01*
X341180Y83820D02*
X266700Y83820D01*
X252760Y83820D02*
X251460Y83820D01*
X252760Y83820D02*
X266700Y83820D01*
X298900Y38100D02*
X321760Y15240D01*
X518160Y15240D01*
X541020Y38100D01*
X828040Y572800D02*
X844520Y589280D01*
X861060Y589280D01*
X891540Y558800D01*
X891540Y35560D01*
X871220Y15240D01*
X558800Y15240D01*
X541020Y33020D01*
X541020Y38100D01*
X298900Y38100D02*
X296360Y35560D01*
X298900Y38100D02*
X255300Y38100D01*
X252760Y35560D01*
X139700Y561370D02*
X152400Y574070D01*
X152400Y687100D02*
X224760Y759460D01*
X152400Y687100D02*
X152400Y574070D01*
X167640Y566450D02*
X139700Y538510D01*
X167640Y654080D02*
X224760Y711200D01*
X167640Y654080D02*
X167640Y566450D01*
X182880Y558830D02*
X139700Y515650D01*
X182880Y621060D02*
X224760Y662940D01*
X182880Y621060D02*
X182880Y558830D01*
X196088Y549178D02*
X139700Y492790D01*
X196088Y586008D02*
X224760Y614680D01*
X196088Y586008D02*
X196088Y549178D01*
X212075Y542305D02*
X139700Y469930D01*
X212075Y553735D02*
X224760Y566420D01*
X212075Y553735D02*
X212075Y542305D01*
X142270Y447070D02*
X139700Y447070D01*
X142270Y447070D02*
X213360Y518160D01*
X223520Y518160D01*
X228600Y513080D01*
X228600Y514320D01*
X224760Y518160D01*
X142270Y424210D02*
X139700Y424210D01*
X142270Y424210D02*
X187960Y469900D01*
X220980Y469900D01*
X226060Y464820D01*
X226060Y468600D01*
X224760Y469900D01*
X159990Y421640D02*
X139700Y401350D01*
X159990Y421640D02*
X224760Y421640D01*
X226030Y378490D02*
X139700Y378490D01*
X226030Y378490D02*
X226060Y378460D01*
X226060Y374680D01*
X224760Y373380D01*
X170210Y325120D02*
X139700Y355630D01*
X170210Y325120D02*
X224760Y325120D01*
X195610Y276860D02*
X139700Y332770D01*
X195610Y276860D02*
X224760Y276860D01*
X221010Y228600D02*
X139700Y309910D01*
X221010Y228600D02*
X224760Y228600D01*
X193040Y233710D02*
X139700Y287050D01*
X193040Y212060D02*
X224760Y180340D01*
X193040Y212060D02*
X193040Y233710D01*
X175260Y228630D02*
X139700Y264190D01*
X175260Y181580D02*
X224760Y132080D01*
X175260Y181580D02*
X175260Y228630D01*
X114300Y572800D02*
X97820Y589280D01*
X78740Y589280D01*
X60960Y571500D01*
X60960Y71120D01*
X96520Y35560D02*
X224760Y35560D01*
X96520Y35560D02*
X60960Y71120D01*
X157480Y223550D02*
X139700Y241330D01*
X157480Y151100D02*
X224760Y83820D01*
X157480Y151100D02*
X157480Y223550D01*
M02*
