G04 EAGLE Gerber RS-274X export*
G75*
%MOMM*%
%FSLAX34Y34*%
%LPD*%
%IN*%
%IPPOS*%
%AMOC8*
5,1,8,0,0,1.08239X$1,22.5*%
G01*
%ADD10C,0.254000*%


D10*
X10160Y0D02*
X931420Y0D01*
X931420Y792380D01*
X10160Y792380D01*
X10160Y0D01*
X113764Y626600D02*
X112696Y626676D01*
X111635Y626829D01*
X110588Y627057D01*
X109560Y627359D01*
X108556Y627733D01*
X107581Y628178D01*
X106641Y628692D01*
X105740Y629271D01*
X104882Y629913D01*
X104072Y630615D01*
X103315Y631372D01*
X102613Y632182D01*
X101971Y633040D01*
X101392Y633941D01*
X100878Y634881D01*
X100433Y635856D01*
X100059Y636860D01*
X99757Y637888D01*
X99529Y638935D01*
X99376Y639996D01*
X99300Y641064D01*
X99300Y642136D01*
X99376Y643204D01*
X99529Y644265D01*
X99757Y645312D01*
X100059Y646340D01*
X100433Y647344D01*
X100878Y648319D01*
X101392Y649259D01*
X101971Y650160D01*
X102613Y651018D01*
X103315Y651828D01*
X104072Y652585D01*
X104882Y653287D01*
X105740Y653929D01*
X106641Y654508D01*
X107581Y655022D01*
X108556Y655467D01*
X109560Y655841D01*
X110588Y656143D01*
X111635Y656371D01*
X112696Y656524D01*
X113764Y656600D01*
X114836Y656600D01*
X115904Y656524D01*
X116965Y656371D01*
X118012Y656143D01*
X119040Y655841D01*
X120044Y655467D01*
X121019Y655022D01*
X121959Y654508D01*
X122860Y653929D01*
X123718Y653287D01*
X124528Y652585D01*
X125285Y651828D01*
X125987Y651018D01*
X126629Y650160D01*
X127208Y649259D01*
X127722Y648319D01*
X128167Y647344D01*
X128541Y646340D01*
X128843Y645312D01*
X129071Y644265D01*
X129224Y643204D01*
X129300Y642136D01*
X129300Y641064D01*
X129224Y639996D01*
X129071Y638935D01*
X128843Y637888D01*
X128541Y636860D01*
X128167Y635856D01*
X127722Y634881D01*
X127208Y633941D01*
X126629Y633040D01*
X125987Y632182D01*
X125285Y631372D01*
X124528Y630615D01*
X123718Y629913D01*
X122860Y629271D01*
X121959Y628692D01*
X121019Y628178D01*
X120044Y627733D01*
X119040Y627359D01*
X118012Y627057D01*
X116965Y626829D01*
X115904Y626676D01*
X114836Y626600D01*
X113764Y626600D01*
X113764Y156200D02*
X112696Y156276D01*
X111635Y156429D01*
X110588Y156657D01*
X109560Y156959D01*
X108556Y157333D01*
X107581Y157778D01*
X106641Y158292D01*
X105740Y158871D01*
X104882Y159513D01*
X104072Y160215D01*
X103315Y160972D01*
X102613Y161782D01*
X101971Y162640D01*
X101392Y163541D01*
X100878Y164481D01*
X100433Y165456D01*
X100059Y166460D01*
X99757Y167488D01*
X99529Y168535D01*
X99376Y169596D01*
X99300Y170664D01*
X99300Y171736D01*
X99376Y172804D01*
X99529Y173865D01*
X99757Y174912D01*
X100059Y175940D01*
X100433Y176944D01*
X100878Y177919D01*
X101392Y178859D01*
X101971Y179760D01*
X102613Y180618D01*
X103315Y181428D01*
X104072Y182185D01*
X104882Y182887D01*
X105740Y183529D01*
X106641Y184108D01*
X107581Y184622D01*
X108556Y185067D01*
X109560Y185441D01*
X110588Y185743D01*
X111635Y185971D01*
X112696Y186124D01*
X113764Y186200D01*
X114836Y186200D01*
X115904Y186124D01*
X116965Y185971D01*
X118012Y185743D01*
X119040Y185441D01*
X120044Y185067D01*
X121019Y184622D01*
X121959Y184108D01*
X122860Y183529D01*
X123718Y182887D01*
X124528Y182185D01*
X125285Y181428D01*
X125987Y180618D01*
X126629Y179760D01*
X127208Y178859D01*
X127722Y177919D01*
X128167Y176944D01*
X128541Y175940D01*
X128843Y174912D01*
X129071Y173865D01*
X129224Y172804D01*
X129300Y171736D01*
X129300Y170664D01*
X129224Y169596D01*
X129071Y168535D01*
X128843Y167488D01*
X128541Y166460D01*
X128167Y165456D01*
X127722Y164481D01*
X127208Y163541D01*
X126629Y162640D01*
X125987Y161782D01*
X125285Y160972D01*
X124528Y160215D01*
X123718Y159513D01*
X122860Y158871D01*
X121959Y158292D01*
X121019Y157778D01*
X120044Y157333D01*
X119040Y156959D01*
X118012Y156657D01*
X116965Y156429D01*
X115904Y156276D01*
X114836Y156200D01*
X113764Y156200D01*
X828576Y186200D02*
X829644Y186124D01*
X830705Y185971D01*
X831752Y185743D01*
X832780Y185441D01*
X833784Y185067D01*
X834759Y184622D01*
X835699Y184108D01*
X836600Y183529D01*
X837458Y182887D01*
X838268Y182185D01*
X839025Y181428D01*
X839727Y180618D01*
X840369Y179760D01*
X840948Y178859D01*
X841462Y177919D01*
X841907Y176944D01*
X842281Y175940D01*
X842583Y174912D01*
X842811Y173865D01*
X842964Y172804D01*
X843040Y171736D01*
X843040Y170664D01*
X842964Y169596D01*
X842811Y168535D01*
X842583Y167488D01*
X842281Y166460D01*
X841907Y165456D01*
X841462Y164481D01*
X840948Y163541D01*
X840369Y162640D01*
X839727Y161782D01*
X839025Y160972D01*
X838268Y160215D01*
X837458Y159513D01*
X836600Y158871D01*
X835699Y158292D01*
X834759Y157778D01*
X833784Y157333D01*
X832780Y156959D01*
X831752Y156657D01*
X830705Y156429D01*
X829644Y156276D01*
X828576Y156200D01*
X827504Y156200D01*
X826436Y156276D01*
X825375Y156429D01*
X824328Y156657D01*
X823300Y156959D01*
X822296Y157333D01*
X821321Y157778D01*
X820381Y158292D01*
X819480Y158871D01*
X818622Y159513D01*
X817812Y160215D01*
X817055Y160972D01*
X816353Y161782D01*
X815711Y162640D01*
X815132Y163541D01*
X814618Y164481D01*
X814173Y165456D01*
X813799Y166460D01*
X813497Y167488D01*
X813269Y168535D01*
X813116Y169596D01*
X813040Y170664D01*
X813040Y171736D01*
X813116Y172804D01*
X813269Y173865D01*
X813497Y174912D01*
X813799Y175940D01*
X814173Y176944D01*
X814618Y177919D01*
X815132Y178859D01*
X815711Y179760D01*
X816353Y180618D01*
X817055Y181428D01*
X817812Y182185D01*
X818622Y182887D01*
X819480Y183529D01*
X820381Y184108D01*
X821321Y184622D01*
X822296Y185067D01*
X823300Y185441D01*
X824328Y185743D01*
X825375Y185971D01*
X826436Y186124D01*
X827504Y186200D01*
X828576Y186200D01*
X828576Y656600D02*
X829644Y656524D01*
X830705Y656371D01*
X831752Y656143D01*
X832780Y655841D01*
X833784Y655467D01*
X834759Y655022D01*
X835699Y654508D01*
X836600Y653929D01*
X837458Y653287D01*
X838268Y652585D01*
X839025Y651828D01*
X839727Y651018D01*
X840369Y650160D01*
X840948Y649259D01*
X841462Y648319D01*
X841907Y647344D01*
X842281Y646340D01*
X842583Y645312D01*
X842811Y644265D01*
X842964Y643204D01*
X843040Y642136D01*
X843040Y641064D01*
X842964Y639996D01*
X842811Y638935D01*
X842583Y637888D01*
X842281Y636860D01*
X841907Y635856D01*
X841462Y634881D01*
X840948Y633941D01*
X840369Y633040D01*
X839727Y632182D01*
X839025Y631372D01*
X838268Y630615D01*
X837458Y629913D01*
X836600Y629271D01*
X835699Y628692D01*
X834759Y628178D01*
X833784Y627733D01*
X832780Y627359D01*
X831752Y627057D01*
X830705Y626829D01*
X829644Y626676D01*
X828576Y626600D01*
X827504Y626600D01*
X826436Y626676D01*
X825375Y626829D01*
X824328Y627057D01*
X823300Y627359D01*
X822296Y627733D01*
X821321Y628178D01*
X820381Y628692D01*
X819480Y629271D01*
X818622Y629913D01*
X817812Y630615D01*
X817055Y631372D01*
X816353Y632182D01*
X815711Y633040D01*
X815132Y633941D01*
X814618Y634881D01*
X814173Y635856D01*
X813799Y636860D01*
X813497Y637888D01*
X813269Y638935D01*
X813116Y639996D01*
X813040Y641064D01*
X813040Y642136D01*
X813116Y643204D01*
X813269Y644265D01*
X813497Y645312D01*
X813799Y646340D01*
X814173Y647344D01*
X814618Y648319D01*
X815132Y649259D01*
X815711Y650160D01*
X816353Y651018D01*
X817055Y651828D01*
X817812Y652585D01*
X818622Y653287D01*
X819480Y653929D01*
X820381Y654508D01*
X821321Y655022D01*
X822296Y655467D01*
X823300Y655841D01*
X824328Y656143D01*
X825375Y656371D01*
X826436Y656524D01*
X827504Y656600D01*
X828576Y656600D01*
M02*
