G04 EAGLE Gerber RS-274X export*
G75*
%MOMM*%
%FSLAX34Y34*%
%LPD*%
%INSoldermask Bottom*%
%IPPOS*%
%AMOC8*
5,1,8,0,0,1.08239X$1,22.5*%
G01*
%ADD10C,2.298700*%
%ADD11C,2.387600*%
%ADD12C,1.712800*%
%ADD13C,3.203200*%
%ADD14P,1.853918X8X112.500000*%


D10*
X620078Y762000D02*
X599123Y762000D01*
X442278Y762000D02*
X421323Y762000D01*
X713423Y327660D02*
X734378Y327660D01*
X556578Y327660D02*
X535623Y327660D01*
X599123Y279400D02*
X620078Y279400D01*
X442278Y279400D02*
X421323Y279400D01*
X710883Y231140D02*
X731838Y231140D01*
X554038Y231140D02*
X533083Y231140D01*
X599123Y182880D02*
X620078Y182880D01*
X442278Y182880D02*
X421323Y182880D01*
X710883Y134620D02*
X731838Y134620D01*
X554038Y134620D02*
X533083Y134620D01*
X599123Y86360D02*
X620078Y86360D01*
X442278Y86360D02*
X421323Y86360D01*
X708343Y38100D02*
X729298Y38100D01*
X551498Y38100D02*
X530543Y38100D01*
X713423Y713740D02*
X734378Y713740D01*
X556578Y713740D02*
X535623Y713740D01*
X599123Y665480D02*
X620078Y665480D01*
X442278Y665480D02*
X421323Y665480D01*
X713423Y617220D02*
X734378Y617220D01*
X556578Y617220D02*
X535623Y617220D01*
X599123Y568960D02*
X620078Y568960D01*
X442278Y568960D02*
X421323Y568960D01*
X713423Y520700D02*
X734378Y520700D01*
X556578Y520700D02*
X535623Y520700D01*
X599123Y472440D02*
X620078Y472440D01*
X442278Y472440D02*
X421323Y472440D01*
X713423Y424180D02*
X734378Y424180D01*
X556578Y424180D02*
X535623Y424180D01*
X599123Y375920D02*
X620078Y375920D01*
X442278Y375920D02*
X421323Y375920D01*
D11*
X298900Y749300D03*
X342900Y749300D03*
X386900Y749300D03*
X298900Y647700D03*
X342900Y647700D03*
X386900Y647700D03*
X298900Y546100D03*
X342900Y546100D03*
X386900Y546100D03*
X298900Y444500D03*
X342900Y444500D03*
X386900Y444500D03*
X386900Y342900D03*
X342900Y342900D03*
X298900Y342900D03*
X386900Y241300D03*
X342900Y241300D03*
X298900Y241300D03*
X386900Y139700D03*
X342900Y139700D03*
X298900Y139700D03*
X386900Y38100D03*
X342900Y38100D03*
X298900Y38100D03*
D12*
X114300Y572800D03*
X139700Y469930D03*
X139700Y492790D03*
X139700Y515650D03*
X139700Y538510D03*
X139700Y561370D03*
X88900Y561370D03*
X139700Y447070D03*
X139700Y424210D03*
X139700Y401350D03*
X139700Y378490D03*
X139700Y355630D03*
X139700Y332770D03*
X139700Y309910D03*
X139700Y287050D03*
X139700Y264190D03*
X139700Y241330D03*
X114300Y549940D03*
X114300Y527080D03*
X114300Y504220D03*
X114300Y481360D03*
X114300Y458500D03*
X114300Y435640D03*
X114300Y412780D03*
X114300Y389920D03*
X114300Y367060D03*
X114300Y344200D03*
X114300Y321340D03*
X114300Y298480D03*
X114300Y275620D03*
X114300Y252760D03*
X88900Y538510D03*
X88900Y515650D03*
X88900Y492790D03*
X88900Y469930D03*
X88900Y447070D03*
X88900Y424210D03*
X88900Y401350D03*
X88900Y378490D03*
X88900Y355630D03*
X88900Y332770D03*
X88900Y309910D03*
X88900Y287050D03*
X88900Y264190D03*
D13*
X114300Y641600D03*
X114300Y171200D03*
D12*
X828040Y572800D03*
X802640Y469930D03*
X802640Y492790D03*
X802640Y515650D03*
X802640Y538510D03*
D14*
X802640Y561370D03*
D12*
X853440Y561370D03*
X802640Y447070D03*
X802640Y424210D03*
X802640Y401350D03*
X802640Y378490D03*
X802640Y355630D03*
X802640Y332770D03*
X802640Y309910D03*
X802640Y287050D03*
X802640Y264190D03*
X802640Y241330D03*
X828040Y549940D03*
X828040Y527080D03*
X828040Y504220D03*
X828040Y481360D03*
X828040Y458500D03*
X828040Y435640D03*
X828040Y412780D03*
X828040Y389920D03*
X828040Y367060D03*
X828040Y344200D03*
X828040Y321340D03*
X828040Y298480D03*
X828040Y275620D03*
X828040Y252760D03*
X853440Y538510D03*
X853440Y515650D03*
X853440Y492790D03*
X853440Y469930D03*
X853440Y447070D03*
X853440Y424210D03*
X853440Y401350D03*
X853440Y378490D03*
X853440Y355630D03*
X853440Y332770D03*
X853440Y309910D03*
X853440Y287050D03*
X853440Y264190D03*
D13*
X828040Y171200D03*
X828040Y641600D03*
M02*
