M48
;GenerationSoftware,Autodesk,EAGLE,9.6.1*%
;CreationDate,2020-08-21T05:14:19Z*%
FMAT,2
ICI,OFF
METRIC,TZ,000.000
T5C0.900
T4C1.397
T3C1.400
T2C3.000
%
G90
M71
T2
X11430Y17120
X82804Y17120
X82804Y64160
X11430Y64160
T3
X29890Y74930
X34290Y24130
X34290Y74930
X38690Y74930
X29890Y64770
X34290Y64770
X38690Y64770
X29890Y54610
X34290Y54610
X38690Y54610
X29890Y44450
X34290Y44450
X38690Y44450
X38690Y34290
X34290Y34290
X29890Y34290
X38690Y24130
X29890Y24130
X38690Y13970
X34290Y13970
X29890Y13970
X38690Y3810
X34290Y3810
X29890Y3810
T4
X54356Y23114
X71882Y3810
X43180Y8636
X60960Y8636
X54356Y13462
X72136Y13462
X43180Y18288
X60960Y18288
X72390Y52070
X54610Y52070
X72136Y23114
X43180Y27940
X60960Y27940
X54610Y32766
X72390Y32766
X43180Y76200
X60960Y76200
X72390Y71374
X54102Y3810
X60960Y47244
X43180Y47244
X72390Y42418
X54610Y42418
X60960Y37592
X43180Y37592
X60960Y56896
X54610Y61722
X72390Y61722
X43180Y66548
X60960Y66548
X54610Y71374
X43180Y56896
T5
X80264Y35563
X80264Y33277
X80264Y30991
X80264Y28705
X80264Y26419
X80264Y24133
X82804Y54994
X82804Y52708
X82804Y50422
X82804Y48136
X82804Y45850
X80264Y37849
X80264Y40135
X80264Y42421
X80264Y44707
X85344Y56137
X80264Y56137
X80264Y53851
X80264Y51565
X80264Y49279
X80264Y46993
X82804Y57280
X85344Y49279
X85344Y26419
X85344Y28705
X85344Y30991
X85344Y33277
X85344Y35563
X85344Y37849
X85344Y40135
X85344Y42421
X85344Y44707
X85344Y46993
X82804Y43564
X85344Y51565
X85344Y53851
X82804Y25276
X82804Y27562
X82804Y29848
X82804Y32134
X82804Y34420
X82804Y36706
X82804Y38992
X82804Y41278
X13970Y37849
X11430Y48136
X11430Y50422
X11430Y52708
X11430Y54994
X13970Y24133
X13970Y26419
X13970Y28705
X13970Y30991
X13970Y33277
X13970Y35563
X11430Y45850
X13970Y40135
X13970Y42421
X13970Y44707
X8890Y56137
X13970Y56137
X13970Y53851
X13970Y51565
X13970Y49279
X13970Y46993
X11430Y57280
X8890Y51565
X8890Y28705
X8890Y30991
X8890Y33277
X8890Y35563
X8890Y37849
X8890Y40135
X8890Y42421
X8890Y44707
X8890Y46993
X8890Y49279
X8890Y26419
X8890Y53851
X11430Y25276
X11430Y27562
X11430Y29848
X11430Y32134
X11430Y34420
X11430Y36706
X11430Y38992
X11430Y41278
X11430Y43564
M30